<svg width="489.3999877929687px" height="237.67999267578125px" xmlns="http://www.w3.org/2000/svg" viewBox="5.300006103515642 -43.839996337890625 489.3999877929687 237.67999267578125" style="background: none;" preserveAspectRatio="xMidYMid"><defs><linearGradient id="editing-sticker-gradient" x1="0.5" y1="0.2" x2="0.5" y2="0.8"><stop offset="0" stop-color="#fd9"></stop><stop offset="1" stop-color="#9df"></stop></linearGradient><filter id="editing-sticker" x="-100%" y="-100%" width="300%" height="300%"><feMorphology operator="erode" radius="1" in="SourceAlpha" result="alpha-erode"></feMorphology><feConvolveMatrix order="3,3" divisor="1" kernelMatrix="0 1 0 1 1 1 0 1 0" in="alpha-erode" result="alpha-round"></feConvolveMatrix><feMorphology operator="dilate" radius="3.5" in="alpha-round" result="dilate-shadow"></feMorphology><feGaussianBlur in="dilate-shadow" stdDeviation="1.5" result="shadow"></feGaussianBlur><feFlood flood-color="#fff" result="flood-sticker"></feFlood><feComposite operator="in" in="flood-sticker" in2="alpha-round" result="comp-sticker"></feComposite><feMorphology operator="dilate" radius="3" in="comp-sticker" result="morph-sticker"></feMorphology><feConvolveMatrix order="3,3" divisor="1" kernelMatrix="0 1 0 1 1 1 0 1 0" in="morph-sticker" result="sticker"></feConvolveMatrix><feMerge><feMergeNode in="shadow"></feMergeNode><feMergeNode in="sticker"></feMergeNode><feMergeNode in="SourceGraphic"></feMergeNode></feMerge></filter></defs><g filter="url(#editing-sticker)"><g transform="translate(82.6000030040741, 122.09999752044678)"><path d="M11.04-20.28L7.68-21.60L11.88-38.16L11.88-38.16Q12.72-40.80 12.72-42.60L12.72-42.60L12.72-42.60Q12.72-43.68 11.94-44.58L11.94-44.58L11.94-44.58Q11.16-45.48 8.76-47.04L8.76-47.04L1.20-52.08L1.20-52.08Q4.08-60.36 9-69.12L9-69.12L11.64-69.96L11.64-69.96Q13.08-69.24 13.80-68.76L13.80-68.76L13.80-68.76Q17.88-66.72 20.64-65.04L20.64-65.04L20.64-65.04Q26.64-61.44 29.04-58.14L29.04-58.14L29.04-58.14Q31.44-54.84 31.44-50.16L31.44-50.16L31.44-50.16Q31.44-45.48 29.52-40.08L29.52-40.08L29.52-40.08Q27.12-32.16 23.52-23.28L23.52-23.28L11.04-20.28ZM43.68 1.08L43.68 1.08Q43.08-5.28 43.08-10.20L43.08-10.20L43.08-10.20Q43.08-16.32 43.68-20.76L43.68-20.76L43.68-20.76Q55.32-27 62.88-31.98L62.88-31.98L62.88-31.98Q70.44-36.96 72.84-39.84L72.84-39.84L72.84-39.84Q72.96-42.72 72.66-44.04L72.66-44.04L72.66-44.04Q72.36-45.36 71.46-45.84L71.46-45.84L71.46-45.84Q70.56-46.32 68.52-46.32L68.52-46.32L68.52-46.32Q50.64-46.32 47.64-46.68L47.64-46.68L47.64-46.68Q42.84-47.16 40.74-50.10L40.74-50.10L40.74-50.10Q38.64-53.04 38.16-59.88L38.16-59.88L38.16-59.88Q37.92-64.20 37.92-68.40L37.92-68.40L37.92-68.40Q37.92-79.80 38.52-87L38.52-87L38.52-87Q42.00-88.32 46.68-89.34L46.68-89.34L46.68-89.34Q51.36-90.36 53.52-90.36L53.52-90.36L53.52-90.36Q54-87.48 54.84-77.16L54.84-77.16L55.20-72.24L55.20-72.24Q55.44-69.60 55.86-68.52L55.86-68.52L55.86-68.52Q56.28-67.44 57.30-67.08L57.30-67.08L57.30-67.08Q58.32-66.72 60.84-66.60L60.84-66.60L65.52-66.48L65.52-66.48Q68.88-66.48 74.64-66.24L74.64-66.24L74.64-66.24Q81.36-65.88 84.78-61.68L84.78-61.68L84.78-61.68Q88.20-57.48 88.20-49.68L88.20-49.68L88.20-49.68Q88.20-24.96 47.40 1.08L47.40 1.08L43.68 1.08ZM103.44 3.84L98.40-14.04L117.84-19.20L122.76-1.32L103.44 3.84ZM179.64 1.44L179.64 1.44Q179.64-3 179.52-5.88L179.52-5.88L179.52-5.88Q179.52-25.68 178.92-36.12L178.92-36.12L178.92-36.12Q178.68-40.20 177.78-42.36L177.78-42.36L177.78-42.36Q176.88-44.52 174.96-45.36L174.96-45.36L174.96-45.36Q173.04-46.20 169.32-46.20L169.32-46.20L142.08-46.20L142.08-46.20Q140.16-46.20 133.56-48.24L133.56-48.24L133.56-48.24Q134.40-59.28 136.80-69.12L136.80-69.12L144.96-70.56L147.12-68.16L147.12-68.16Q148.20-66.84 149.10-66.54L149.10-66.54L149.10-66.54Q150-66.24 152.40-66.24L152.40-66.24L174-66.24L174-66.24Q182.76-66.24 187.26-63.78L187.26-63.78L187.26-63.78Q191.76-61.32 193.56-55.38L193.56-55.38L193.56-55.38Q195.36-49.44 195.36-38.04L195.36-38.04L195.36-38.04Q195.36-30 195-19.32L195-19.32L195-19.32Q194.64-8.64 194.04-0.96L194.04-0.96L184.68 1.44L179.64 1.44ZM135.48 1.44L136.08-32.76L148.32-35.04L153.24-35.16L153.12-0.96L140.52 1.44L135.48 1.44ZM206.04 0L207.00-19.44L246.72-19.44L246.72-19.44Q246.84-27.96 246.12-38.04L246.12-38.04L246.12-38.04Q245.88-41.64 245.28-43.38L245.28-43.38L245.28-43.38Q244.68-45.12 243.24-45.96L243.24-45.96L243.24-45.96Q241.80-46.80 238.56-47.40L238.56-47.40L238.56-47.40Q229.20-48.96 223.68-49.56L223.68-49.56L223.80-47.16L223.80-47.16Q223.92-44.16 224.40-43.32L224.40-43.32L224.40-43.32Q224.88-42.48 226.68-41.64L226.68-41.64L231.60-39.60L231.60-39.60Q231.12-36.24 230.10-31.68L230.10-31.68L230.10-31.68Q229.08-27.12 227.88-23.40L227.88-23.40L227.88-23.40Q219.72-25.68 215.88-27.42L215.88-27.42L215.88-27.42Q212.04-29.16 210.48-31.44L210.48-31.44L210.48-31.44Q208.92-33.72 208.56-37.92L208.56-37.92L208.56-37.92Q208.32-41.28 209.16-48.60L209.16-48.60L209.16-48.60Q210.00-55.92 211.80-68.16L211.80-68.16L217.44-69.60L217.44-69.60Q232.08-68.28 243.84-66.36L243.84-66.36L243.84-66.36Q251.40-65.04 255.06-62.22L255.06-62.22L255.06-62.22Q258.72-59.40 260.16-53.58L260.16-53.58L260.16-53.58Q261.60-47.76 261.60-36.48L261.60-36.48L261.60-36.48Q261.60-27.84 261-16.98L261-16.98L261-16.98Q260.40-6.12 259.68 0L259.68 0L206.04 0ZM272.28 0.84L272.16-4.56L272.16-4.56Q273.12-12 277.08-33.24L277.08-33.24L277.08-33.24Q278.04-37.80 278.52-40.92L278.52-40.92L278.52-40.92Q278.88-43.08 278.88-44.16L278.88-44.16L278.88-44.16Q278.88-45.12 278.40-45.66L278.40-45.66L278.40-45.66Q277.92-46.20 276.12-47.28L276.12-47.28L271.92-49.80L271.92-49.80Q272.88-60 275.52-68.64L275.52-68.64L278.28-69.48L283.68-67.44L283.68-67.44Q288.36-65.64 290.04-65.22L290.04-65.22L290.04-65.22Q291.72-64.80 293.52-64.80L293.52-64.80L293.52-64.80Q295.20-64.80 302.16-65.76L302.16-65.76L302.16-65.76Q303.36-65.88 307.20-66.36L307.20-66.36L307.20-66.36Q311.04-66.84 313.08-66.84L313.08-66.84L313.08-66.84Q319.80-66.84 324.48-64.26L324.48-64.26L324.48-64.26Q329.16-61.68 331.08-56.76L331.08-56.76L331.08-56.76Q332.64-52.92 333.12-47.52L333.12-47.52L333.12-47.52Q333.60-42.12 333.60-33.60L333.60-33.60L333.60-33.60Q333.60-23.40 333.24-15.24L333.24-15.24L331.92 0L299.40 0L300.24-20.04L319.20-20.04L319.20-20.04Q319.20-26.16 318.36-36.24L318.36-36.24L318.36-36.24Q318.00-40.92 317.10-43.20L317.10-43.20L317.10-43.20Q316.20-45.48 314.22-46.44L314.22-46.44L314.22-46.44Q312.24-47.40 308.28-47.40L308.28-47.40L308.28-47.40Q302.64-47.40 294.36-46.68L294.36-46.68L294.36-46.68Q293.64-39.72 293.10-33.42L293.10-33.42L293.10-33.42Q292.56-27.12 292.08-22.56L292.08-22.56L290.16-1.32L290.16-1.32Q283.32 0.48 277.92 0.84L277.92 0.84L272.28 0.84Z" fill="url(#editing-sticker-gradient)" stroke="#000" stroke-width="2.5"></path></g></g><style>text {
  font-size: 64px;
  font-family: Arial Black;
  dominant-baseline: central;
  text-anchor: middle;
}</style></svg>